<svg width="158" height="74" viewBox="0 0 158 74" fill="none" xmlns="http://www.w3.org/2000/svg">
<path d="M26.7 25.075L32 30.375L37.3 25.075" fill="#F5533D"/>
<path d="M32 30.375L32 15.8C32 12.8729 34.3729 10.5 37.3 10.5H53.2C56.127 10.5 58.5 12.8729 58.5 15.8V30.375" fill="#F5533D"/>
<path d="M37.3 48.925L32 43.625L26.7 48.925" fill="#F5533D"/>
<path d="M32 43.625V58.2C32 61.1271 29.6271 63.5 26.7 63.5H10.8C7.87289 63.5 5.5 61.1271 5.5 58.2V43.625" fill="#F5533D"/>
<path d="M43.925 31.7L38.625 37L43.925 42.3" fill="#F5533D"/>
<path d="M38.625 37L53.2 37C56.1271 37 58.5 39.3729 58.5 42.3V58.2C58.5 61.1271 56.1271 63.5 53.2 63.5H38.625" fill="#F5533D"/>
<path d="M20.075 42.3L25.375 37L20.075 31.7" fill="#F5533D"/>
<path d="M25.375 37L10.8 37C7.87289 37 5.5 34.6271 5.5 31.7V15.8C5.5 12.8729 7.87289 10.5 10.8 10.5H25.375" fill="#F5533D"/>
<path d="M26.7 25.075L32 30.375M32 30.375L37.3 25.075M32 30.375L32 15.8C32 12.8729 34.3729 10.5 37.3 10.5H53.2C56.127 10.5 58.5 12.8729 58.5 15.8V30.375M37.3 48.925L32 43.625M32 43.625L26.7 48.925M32 43.625V58.2C32 61.1271 29.6271 63.5 26.7 63.5H10.8C7.87289 63.5 5.5 61.1271 5.5 58.2V43.625M43.925 31.7L38.625 37M38.625 37L43.925 42.3M38.625 37L53.2 37C56.1271 37 58.5 39.3729 58.5 42.3V58.2C58.5 61.1271 56.1271 63.5 53.2 63.5H38.625M20.075 42.3L25.375 37M25.375 37L20.075 31.7M25.375 37L10.8 37C7.87289 37 5.5 34.6271 5.5 31.7V15.8C5.5 12.8729 7.87289 10.5 10.8 10.5H25.375" stroke="white" stroke-width="4" stroke-linecap="round" stroke-linejoin="round"/>
<path d="M100.535 28H97.1748L89.5668 16.504V28H86.2068V11.224H89.5668L97.1748 22.744V11.224H100.535V28ZM116.071 16.432C116.071 17.328 115.855 18.168 115.423 18.952C115.007 19.736 114.343 20.368 113.431 20.848C112.535 21.328 111.399 21.568 110.023 21.568H107.215V28H103.855V11.248H110.023C111.319 11.248 112.423 11.472 113.335 11.92C114.247 12.368 114.927 12.984 115.375 13.768C115.839 14.552 116.071 15.44 116.071 16.432ZM109.879 18.856C110.807 18.856 111.495 18.648 111.943 18.232C112.391 17.8 112.615 17.2 112.615 16.432C112.615 14.8 111.703 13.984 109.879 13.984H107.215V18.856H109.879ZM132.785 28H129.425L121.817 16.504V28H118.457V11.224H121.817L129.425 22.744V11.224H132.785V28Z" fill="#F5533D"/>
<path d="M85.0388 50.288C84.6548 49.584 84.1268 49.048 83.4548 48.68C82.7828 48.312 81.9988 48.128 81.1028 48.128C80.1108 48.128 79.2308 48.352 78.4628 48.8C77.6948 49.248 77.0948 49.888 76.6628 50.72C76.2308 51.552 76.0148 52.512 76.0148 53.6C76.0148 54.72 76.2308 55.696 76.6628 56.528C77.1108 57.36 77.7268 58 78.5108 58.448C79.2948 58.896 80.2068 59.12 81.2468 59.12C82.5268 59.12 83.5748 58.784 84.3907 58.112C85.2068 57.424 85.7428 56.472 85.9988 55.256H80.2388V52.688H89.3108V55.616C89.0868 56.784 88.6068 57.864 87.8708 58.856C87.1348 59.848 86.1828 60.648 85.0148 61.256C83.8628 61.848 82.5668 62.144 81.1268 62.144C79.5108 62.144 78.0468 61.784 76.7348 61.064C75.4388 60.328 74.4148 59.312 73.6628 58.016C72.9268 56.72 72.5588 55.248 72.5588 53.6C72.5588 51.952 72.9268 50.48 73.6628 49.184C74.4148 47.872 75.4388 46.856 76.7348 46.136C78.0468 45.4 79.5028 45.032 81.1028 45.032C82.9908 45.032 84.6308 45.496 86.0228 46.424C87.4148 47.336 88.3748 48.624 88.9028 50.288H85.0388ZM95.1566 50.768C95.5886 50.064 96.1486 49.512 96.8366 49.112C97.5406 48.712 98.3406 48.512 99.2366 48.512V52.04H98.3486C97.2926 52.04 96.4926 52.288 95.9486 52.784C95.4206 53.28 95.1566 54.144 95.1566 55.376V62H91.7966V48.704H95.1566V50.768ZM107.404 62.216C106.124 62.216 104.972 61.936 103.948 61.376C102.924 60.8 102.116 59.992 101.524 58.952C100.948 57.912 100.66 56.712 100.66 55.352C100.66 53.992 100.956 52.792 101.548 51.752C102.156 50.712 102.98 49.912 104.02 49.352C105.06 48.776 106.22 48.488 107.5 48.488C108.78 48.488 109.94 48.776 110.98 49.352C112.02 49.912 112.836 50.712 113.428 51.752C114.036 52.792 114.34 53.992 114.34 55.352C114.34 56.712 114.028 57.912 113.404 58.952C112.796 59.992 111.964 60.8 110.908 61.376C109.868 61.936 108.7 62.216 107.404 62.216ZM107.404 59.288C108.012 59.288 108.58 59.144 109.108 58.856C109.652 58.552 110.084 58.104 110.404 57.512C110.724 56.92 110.884 56.2 110.884 55.352C110.884 54.088 110.548 53.12 109.876 52.448C109.22 51.76 108.412 51.416 107.452 51.416C106.492 51.416 105.684 51.76 105.028 52.448C104.388 53.12 104.068 54.088 104.068 55.352C104.068 56.616 104.38 57.592 105.004 58.28C105.644 58.952 106.444 59.288 107.404 59.288ZM129.356 48.704V62H125.972V60.32C125.54 60.896 124.972 61.352 124.268 61.688C123.58 62.008 122.828 62.168 122.012 62.168C120.972 62.168 120.052 61.952 119.252 61.52C118.452 61.072 117.82 60.424 117.356 59.576C116.908 58.712 116.684 57.688 116.684 56.504V48.704H120.044V56.024C120.044 57.08 120.308 57.896 120.836 58.472C121.364 59.032 122.084 59.312 122.996 59.312C123.924 59.312 124.652 59.032 125.18 58.472C125.708 57.896 125.972 57.08 125.972 56.024V48.704H129.356ZM136.032 50.624C136.464 50.016 137.056 49.512 137.808 49.112C138.576 48.696 139.448 48.488 140.424 48.488C141.56 48.488 142.584 48.768 143.496 49.328C144.424 49.888 145.152 50.688 145.68 51.728C146.224 52.752 146.496 53.944 146.496 55.304C146.496 56.664 146.224 57.872 145.68 58.928C145.152 59.968 144.424 60.776 143.496 61.352C142.584 61.928 141.56 62.216 140.424 62.216C139.448 62.216 138.584 62.016 137.832 61.616C137.096 61.216 136.496 60.712 136.032 60.104V68.336H132.672V48.704H136.032V50.624ZM143.064 55.304C143.064 54.504 142.896 53.816 142.56 53.24C142.24 52.648 141.808 52.2 141.264 51.896C140.736 51.592 140.16 51.44 139.536 51.44C138.928 51.44 138.352 51.6 137.808 51.92C137.28 52.224 136.848 52.672 136.512 53.264C136.192 53.856 136.032 54.552 136.032 55.352C136.032 56.152 136.192 56.848 136.512 57.44C136.848 58.032 137.28 58.488 137.808 58.808C138.352 59.112 138.928 59.264 139.536 59.264C140.16 59.264 140.736 59.104 141.264 58.784C141.808 58.464 142.24 58.008 142.56 57.416C142.896 56.824 143.064 56.12 143.064 55.304Z" fill="#F5533D"/>
</svg>
